# This file uses centimeters as units for non-parametric coordinates.

mtllib plataforma.mtl
g default
v 0.143491 0.000000 6.586994
v 0.143491 -0.118807 6.586994
v -0.724452 0.000000 6.085887
v -0.724452 -0.118807 6.085887
v 0.143491 0.000000 7.589206
v 0.143491 -0.118807 7.589206
v 1.011434 0.000000 6.085887
v 1.011434 -0.118807 6.085887
v -0.728675 0.000000 7.072338
v -0.738686 -0.005905 7.073655
v -0.742832 -0.020159 7.074208
v -0.742832 -0.020159 6.099778
v -0.738686 -0.005905 6.100324
v -0.728675 0.000000 6.101649
v -0.742832 -0.098647 7.074208
v -0.738686 -0.112902 7.073655
v -0.728675 -0.118807 7.072338
v -0.728660 -0.118807 6.101566
v -0.738681 -0.112900 6.100300
v -0.742832 -0.098640 6.099778
v -0.712976 0.000000 6.074398
v -0.719079 -0.005907 6.066357
v -0.721607 -0.020167 6.063023
v 0.122266 -0.020159 5.575808
v 0.123866 -0.005905 5.579677
v 0.127730 0.000000 5.589005
v -0.721607 -0.098647 6.063023
v -0.719061 -0.112902 6.066337
v -0.712915 -0.118807 6.074352
v 0.127730 -0.118807 5.589005
v 0.123866 -0.112902 5.579677
v 0.122266 -0.098647 5.575808
v -0.721607 -0.020159 7.110963
v -0.719061 -0.005905 7.107651
v -0.712915 0.000000 7.099635
v 0.122266 -0.020152 7.598180
v 0.123888 -0.005902 7.594328
v 0.127803 0.000000 7.585021
v -0.712915 -0.118807 7.099635
v -0.719061 -0.112902 7.107651
v -0.721607 -0.098647 7.110963
v 0.122266 -0.098647 7.598180
v 0.123866 -0.112902 7.594310
v 0.127730 -0.118807 7.584981
v 0.164716 -0.020159 7.598180
v 0.163116 -0.005905 7.594310
v 0.159252 0.000000 7.584981
v 0.999897 0.000000 7.099635
v 1.006043 -0.005905 7.107651
v 1.008589 -0.020159 7.110962
v 0.159175 -0.118807 7.585015
v 0.163093 -0.112900 7.594325
v 0.164716 -0.098640 7.598180
v 1.008589 -0.098647 7.110962
v 1.006043 -0.112902 7.107651
v 0.999897 -0.118807 7.099635
v 1.029815 -0.020159 7.074208
v 1.025668 -0.005905 7.073654
v 1.015658 0.000000 7.072338
v 1.029814 -0.020152 6.099777
v 1.025666 -0.005902 6.100299
v 1.015652 0.000000 6.101566
v 1.015658 -0.118807 7.072338
v 1.025668 -0.112902 7.073654
v 1.029815 -0.098647 7.074208
v 1.029814 -0.098647 6.099777
v 1.025668 -0.112902 6.100323
v 1.015658 -0.118807 6.101649
v 1.008589 -0.020159 6.063023
v 1.006043 -0.005905 6.066337
v 0.999897 0.000000 6.074351
v 0.159252 0.000000 5.589005
v 0.163116 -0.005905 5.579677
v 0.164716 -0.020159 5.575808
v 0.999958 -0.118807 6.074398
v 1.006061 -0.112900 6.066357
v 1.008589 -0.098640 6.063023
v 0.164716 -0.098647 5.575808
v 0.163116 -0.112902 5.579677
v 0.159252 -0.118807 5.589005
v -0.737145 -0.020159 7.095429
v -0.733428 -0.005905 7.093285
v -0.724452 0.000000 7.088100
v -0.724452 -0.118807 7.088100
v -0.733428 -0.112902 7.093285
v -0.737145 -0.098647 7.095429
v -0.737145 -0.020159 6.078558
v -0.733428 -0.005905 6.080703
v -0.737145 -0.098647 6.078558
v -0.733428 -0.112902 6.080703
v 0.143491 -0.020159 7.603864
v 0.143491 -0.005905 7.599575
v 0.143491 -0.098647 7.603864
v 0.143491 -0.112902 7.599575
v 1.024127 -0.020159 7.095429
v 1.020410 -0.005905 7.093285
v 1.011435 0.000000 7.088100
v 1.011435 -0.118807 7.088100
v 1.020410 -0.112902 7.093285
v 1.024127 -0.098647 7.095429
v 1.024127 -0.020159 6.078558
v 1.020409 -0.005905 6.080703
v 1.024127 -0.098647 6.078558
v 1.020409 -0.112902 6.080703
v 0.143491 -0.020159 5.570123
v 0.143491 -0.005905 5.574412
v 0.143491 0.000000 5.584782
v 0.143491 -0.118807 5.584782
v 0.143491 -0.112902 5.574412
v 0.143491 -0.098647 5.570123
v -0.742832 -0.059403 7.074208
v -0.742832 -0.059399 6.099778
v -0.737145 -0.059403 6.078558
v -0.721607 -0.059407 6.063023
v 0.122266 -0.059403 5.575808
v 0.143491 -0.059403 5.570123
v 0.164716 -0.059403 5.575808
v 1.008589 -0.059399 6.063023
v 1.024127 -0.059403 6.078558
v 1.029814 -0.059400 6.099777
v 1.029815 -0.059403 7.074208
v 1.024127 -0.059403 7.095429
v 1.008589 -0.059403 7.110962
v 0.164716 -0.059399 7.598180
v 0.143491 -0.059403 7.603864
v 0.122266 -0.059400 7.598180
v -0.721607 -0.059403 7.110963
v -0.737145 -0.059403 7.095429
v -0.728667 -0.118807 6.569821
v -0.738683 -0.112901 6.569735
v -0.742832 -0.098643 6.570203
v -0.742832 -0.059401 6.571872
v -0.742832 -0.020159 6.570203
v -0.738686 -0.005905 6.569750
v -0.728675 0.000000 6.569864
v -0.295366 -0.118807 5.833280
v -0.300661 -0.112902 5.824773
v -0.303320 -0.098647 5.821520
v -0.304866 -0.059405 5.822414
v -0.303320 -0.020163 5.821520
v -0.300670 -0.005906 5.824785
v -0.295398 0.000000 5.833304
v 0.590222 -0.118807 5.837830
v 0.594839 -0.112901 5.828933
v 0.595773 -0.098643 5.824680
v 0.592524 -0.059401 5.822804
v 0.595773 -0.020159 5.824680
v 0.594830 -0.005905 5.828923
v 0.590190 0.000000 5.837805
v 1.015658 -0.118807 6.593050
v 1.025668 -0.112902 6.592754
v 1.029815 -0.098647 6.591964
v 1.029815 -0.059401 6.589739
v 1.029815 -0.020156 6.591964
v 1.025667 -0.005903 6.592742
v 1.015655 0.000000 6.593009
v 0.576597 -0.118807 7.344021
v 0.581725 -0.112901 7.352630
v 0.584104 -0.098643 7.356043
v 0.584953 -0.059401 7.355553
v 0.584104 -0.020159 7.356043
v 0.581737 -0.005905 7.352622
v 0.576636 0.000000 7.344005
v -0.307577 -0.118807 7.333657
v -0.312628 -0.112902 7.342303
v -0.314508 -0.098647 7.346005
v -0.313813 -0.059402 7.346406
v -0.314508 -0.020156 7.346005
v -0.312617 -0.005904 7.342312
v -0.307541 0.000000 7.333676
vt 0.432508 0.023381
vt 0.432166 0.027332
vt 0.165525 0.028354
vt 0.165102 0.024371
vt 0.431670 0.030412
vt 0.166083 0.031456
vt 0.822958 0.451495
vt 0.825638 0.449158
vt 0.972399 0.697023
vt 0.969236 0.698278
vt 0.829230 0.446498
vt 0.976303 0.695153
vt 0.153397 0.031426
vt 0.156667 0.033663
vt 0.027331 0.263347
vt 0.023726 0.261718
vt 0.159110 0.035595
vt 0.030250 0.264420
vt 0.969336 0.707103
vt 0.972530 0.708263
vt 0.832352 0.959533
vt 0.829687 0.957423
vt 0.976474 0.710025
vt 0.835926 0.961964
vt 0.816618 0.434721
vt 0.816281 0.438980
vt 0.524041 0.445733
vt 0.523555 0.441373
vt 0.815770 0.442286
vt 0.524669 0.449123
vt 0.569424 0.270733
vt 0.572327 0.271836
vt 0.440732 0.499461
vt 0.438329 0.497498
vt 0.575906 0.273501
vt 0.443960 0.501730
vt 0.510677 0.449256
vt 0.514308 0.451679
vt 0.374686 0.706544
vt 0.370692 0.704797
vt 0.517024 0.453776
vt 0.377918 0.707686
vt 0.371057 0.719793
vt 0.374955 0.717881
vt 0.524715 0.965181
vt 0.521219 0.967750
vt 0.378120 0.716602
vt 0.527310 0.962966
vt 0.162784 0.498404
vt 0.160394 0.500382
vt 0.027432 0.273632
vt 0.030326 0.272512
vt 0.157181 0.502672
vt 0.023864 0.275318
vt 0.534304 0.974928
vt 0.534599 0.970610
vt 0.822702 0.965323
vt 0.823165 0.969624
vt 0.535064 0.967240
vt 0.822094 0.961976
vt 0.839148 0.439956
vt 0.164380 0.013579
vt 0.585500 0.255040
vt 0.453664 0.024318
vt 0.452913 0.507509
vt 0.585384 0.278378
vt 0.168493 0.520026
vt 0.432761 0.519154
vt 0.014417 0.280253
vt 0.148267 0.508505
vt 0.144348 0.025732
vt 0.014174 0.256937
vt 0.445718 0.014357
vt 0.823488 0.439585
vt 0.152852 0.017209
vt 0.977173 0.702576
vt 0.588317 0.266730
vt 0.516709 0.444657
vt 0.444265 0.515815
vt 0.370094 0.712330
vt 0.156964 0.516764
vt 0.527390 0.972025
vt 0.011428 0.268628
vt 0.829953 0.966453
vt 0.435794 0.031451
vt 0.438785 0.034449
vt 0.569458 0.262652
vt 0.570561 0.266683
vt 0.299777 0.266840
vt 0.162017 0.032560
vt 0.970514 0.702664
vt 0.674080 0.706523
vt 0.520200 0.450395
vt 0.820298 0.443200
vt 0.435396 0.500491
vt 0.431337 0.501544
vt 0.169779 0.502404
vt 0.165735 0.501379
vt 0.530603 0.966184
vt 0.376783 0.712168
vt 0.029163 0.268473
vt 0.826524 0.960756
vt 0.160660 0.030280
vt 0.158883 0.027294
vt 0.026539 0.268495
vt 0.023092 0.268523
vt 0.973400 0.702626
vt 0.828009 0.963218
vt 0.444535 0.030159
vt 0.441240 0.032460
vt 0.437175 0.029079
vt 0.439012 0.025919
vt 0.572367 0.261546
vt 0.575962 0.259886
vt 0.821597 0.442179
vt 0.518689 0.447919
vt 0.573192 0.266688
vt 0.576641 0.266698
vt 0.432206 0.508526
vt 0.431844 0.504601
vt 0.436708 0.502762
vt 0.438432 0.505738
vt 0.169309 0.505466
vt 0.168979 0.509392
vt 0.373886 0.712249
vt 0.529213 0.968715
vt 0.164438 0.503660
vt 0.162733 0.506648
vt 0.830616 0.428716
vt 0.433182 0.008614
vt 0.817070 0.423007
vt 0.522708 0.429554
vt 0.509987 0.433614
vt 0.500633 0.443095
vt 0.360101 0.699654
vt 0.357252 0.712613
vt 0.360745 0.725369
vt 0.511509 0.974309
vt 0.521226 0.983235
vt 0.533949 0.986605
vt 0.823953 0.981277
vt 0.836525 0.977407
vt 0.845825 0.968141
vt 0.986925 0.715204
vt 0.989927 0.702420
vt 0.986639 0.689712
vt 0.898678 0.579241
vt 0.901618 0.577481
vt 0.905300 0.575110
vt 0.915182 0.568710
vt 0.294610 0.011174
vt 0.294198 0.023893
vt 0.294122 0.027861
vt 0.294190 0.030952
vt 0.899972 0.831437
vt 0.902950 0.832985
vt 0.906808 0.834905
vt 0.917244 0.840115
vt 0.080062 0.139911
vt 0.089122 0.145576
vt 0.092469 0.147671
vt 0.095105 0.149252
vt 0.674954 0.964674
vt 0.675147 0.968031
vt 0.675612 0.972333
vt 0.676933 0.983978
vt 0.082273 0.395967
vt 0.091963 0.391452
vt 0.095530 0.389764
vt 0.098228 0.388310
vt 0.451784 0.838246
vt 0.448948 0.840066
vt 0.445372 0.842507
vt 0.435702 0.849137
vt 0.301372 0.519587
vt 0.301935 0.508955
vt 0.302131 0.505029
vt 0.302190 0.501969
vt 0.447957 0.579843
vt 0.444968 0.578252
vt 0.441108 0.576254
vt 0.430650 0.570857
vt 0.519415 0.392482
vt 0.510332 0.386926
vt 0.506973 0.384880
vt 0.504335 0.383322
vt 0.675409 0.445583
vt 0.675372 0.442236
vt 0.675239 0.437930
vt 0.674822 0.426170
vt 0.517373 0.135812
vt 0.507938 0.140984
vt 0.504466 0.142918
vt 0.501792 0.144483
vn -0.997007 0.077315 0.000000
vn -0.960204 0.279298 0.000000
vn -0.960040 0.279657 -0.010715
vn -0.997039 0.076045 -0.011413
vn -0.508045 0.861331 0.000000
vn -0.012794 0.999918 0.000000
vn -0.007786 0.999970 -0.000076
vn -0.507552 0.861607 -0.004950
vn -0.012797 -0.999918 -0.000000
vn -0.507906 -0.861412 -0.000006
vn -0.507360 -0.861720 -0.004909
vn -0.007769 -0.999970 -0.000076
vn -0.960176 -0.279396 -0.000004
vn -0.997003 -0.077356 -0.000001
vn -0.997032 -0.076144 -0.011408
vn -0.960000 -0.279796 -0.010728
vn -0.498508 0.077303 -0.863431
vn -0.480064 0.279595 -0.831484
vn -0.471088 0.279948 -0.836484
vn -0.489040 0.076107 -0.868935
vn -0.254008 0.861353 -0.439945
vn -0.006396 0.999918 -0.011077
vn -0.003831 0.999970 -0.006780
vn -0.249668 0.861614 -0.441914
vn -0.006394 -0.999918 -0.011075
vn -0.253968 -0.861394 -0.439887
vn -0.249644 -0.861636 -0.441885
vn -0.003830 -0.999970 -0.006780
vn -0.480097 -0.279339 -0.831551
vn -0.498510 -0.077213 -0.863438
vn -0.489041 -0.076058 -0.868939
vn -0.471102 -0.279805 -0.836524
vn -0.508415 -0.076046 0.857748
vn -0.489325 -0.279486 0.826105
vn -0.480103 -0.279297 0.831562
vn -0.498509 -0.077274 0.863434
vn -0.257981 -0.861695 0.436954
vn -0.003957 -0.999970 0.006702
vn -0.006396 -0.999918 0.011079
vn -0.253970 -0.861391 0.439891
vn 0.003829 0.999970 0.006779
vn 0.249598 0.861626 0.441930
vn 0.253973 0.861388 0.439896
vn 0.006393 0.999918 0.011073
vn 0.470982 0.279808 0.836591
vn 0.488901 0.076137 0.869010
vn 0.498510 0.077248 0.863435
vn 0.480105 0.279286 0.831564
vn 0.488904 -0.076151 0.869007
vn 0.470989 -0.279640 0.836642
vn 0.480120 -0.279176 0.831592
vn 0.498511 -0.077227 0.863437
vn 0.249526 -0.861747 0.441734
vn 0.003821 -0.999970 0.006766
vn 0.006394 -0.999918 0.011076
vn 0.253895 -0.861476 0.439768
vn 0.997047 -0.075984 0.011143
vn 0.960042 -0.279659 0.010461
vn 0.960204 -0.279301 -0.000000
vn 0.997010 -0.077269 -0.000000
vn 0.507566 -0.861599 0.004833
vn 0.007786 -0.999970 0.000074
vn 0.012785 -0.999918 -0.000000
vn 0.508043 -0.861332 -0.000000
vn 0.003958 0.999970 -0.006706
vn 0.257969 0.861658 -0.437032
vn 0.253991 0.861367 -0.439927
vn 0.006391 0.999918 -0.011070
vn 0.489206 0.279550 -0.826153
vn 0.508277 0.075851 -0.857847
vn 0.498504 0.077360 -0.863428
vn 0.480101 0.279311 -0.831558
vn 0.508266 -0.076000 -0.857840
vn 0.489172 -0.279851 -0.826071
vn 0.480074 -0.279524 -0.831502
vn 0.498503 -0.077433 -0.863423
vn 0.257977 -0.861617 -0.437108
vn 0.003952 -0.999970 -0.006694
vn 0.006393 -0.999918 -0.011072
vn 0.254012 -0.861348 -0.439952
vn -1.000000 0.000000 0.000000
vn -0.999933 0.000000 -0.011546
vn -0.500005 0.000001 0.866022
vn -0.509981 0.000001 0.860186
vn 0.500005 -0.000002 0.866022
vn 0.490237 -0.000002 0.871589
vn 1.000000 0.000000 -0.000000
vn 0.999937 0.000000 0.011270
vn 0.500004 -0.000002 -0.866023
vn 0.509822 -0.000002 -0.860280
vn -0.500004 0.000022 -0.866023
vn -0.490377 0.000021 -0.871511
vn -0.707016 0.000000 0.707198
vn -0.863519 -0.075479 0.498637
vn -0.965913 0.000000 0.258866
vn -0.999941 0.000000 0.010845
vn -0.997028 -0.076287 0.010706
vn -0.965909 0.000000 -0.258882
vn -0.863497 -0.075464 -0.498676
vn -0.707046 0.000000 -0.707168
vn -0.509756 0.000021 -0.860319
vn -0.508174 -0.076258 -0.857872
vn -0.000011 0.000000 1.000000
vn -0.000057 -0.075474 0.997148
vn -0.490595 0.000001 0.871388
vn -0.489256 -0.076256 0.868800
vn 0.865975 0.000000 0.500087
vn 0.863518 -0.075479 0.498638
vn 0.509608 -0.000002 0.860407
vn 0.508035 -0.076168 0.857962
vn 0.707060 0.000000 -0.707154
vn 0.863524 -0.075477 -0.498627
vn 0.965906 0.000000 -0.258893
vn 0.999938 0.000000 -0.011100
vn 0.997023 -0.076324 -0.010957
vn -0.000000 0.000000 -1.000000
vn -0.000000 -0.075508 -0.997145
vn 0.490443 -0.000001 -0.871473
vn 0.489109 -0.076511 -0.868860
vn -0.000561 1.000000 0.000324
vn -0.003956 0.999970 0.006701
vn -0.006396 0.999918 0.011078
vn 0.000000 1.000000 0.000000
vn -0.000572 -1.000000 -0.000330
vn 0.000000 -1.000000 -0.000000
vn 0.000001 1.000000 0.000638
vn 0.000563 -1.000000 0.000325
vn -0.000000 1.000000 -0.000638
vn 0.000564 -1.000000 -0.000325
vn -0.829224 0.288280 -0.478835
vn -0.863519 0.075478 -0.498635
vn -0.000572 1.000000 -0.000330
vn -0.428866 0.868832 -0.247396
vn -0.000000 0.288400 -0.957510
vn 0.000000 0.075508 -0.997145
vn 0.000000 0.868941 -0.494916
vn -0.489073 -0.279560 -0.826229
vn -0.829209 -0.288222 -0.478895
vn -0.257875 -0.861682 -0.437042
vn -0.003954 -0.999970 -0.006701
vn -0.428592 -0.868876 -0.247717
vn 0.000000 -0.868941 -0.494916
vn -0.000000 -1.000000 -0.000638
vn -0.000000 -0.288400 -0.957510
vn -0.508417 0.076028 0.857748
vn -0.489335 0.279439 0.826114
vn -0.829245 0.288279 0.478799
vn -0.863519 0.075479 0.498637
vn -0.257934 0.861750 0.436871
vn -0.428646 0.868914 0.247489
vn -0.253869 0.861512 0.439714
vn -0.498511 0.077232 0.863436
vn -0.480121 0.279193 0.831586
vn -0.428646 -0.868914 0.247489
vn -0.000561 -1.000000 0.000324
vn -0.829245 -0.288279 0.478799
vn -0.471335 -0.279796 0.836396
vn -0.000135 -0.288263 0.957551
vn -0.249769 -0.861620 0.441844
vn -0.003831 -0.999970 0.006777
vn -0.000000 -1.000000 0.000638
vn -0.000281 -0.868889 0.495007
vn 0.000264 0.288257 0.957553
vn 0.000043 0.075433 0.997151
vn 0.000421 0.868899 0.494990
vn 0.997046 0.075992 0.011143
vn 0.960029 0.279705 0.010462
vn 0.829245 0.288278 0.478799
vn 0.863518 0.075479 0.498638
vn 0.507502 0.861637 0.004832
vn 0.007785 0.999970 0.000074
vn 0.000563 1.000000 0.000325
vn 0.428650 0.868911 0.247492
vn 0.507907 0.861412 -0.000001
vn 0.012783 0.999918 -0.000000
vn 0.997009 0.077288 -0.000000
vn 0.960176 0.279395 0.000000
vn 0.428651 -0.868910 0.247493
vn 0.829245 -0.288279 0.478799
vn 0.960049 -0.279645 -0.010248
vn 0.829222 -0.288283 -0.478836
vn 0.507573 -0.861596 -0.004726
vn 0.007784 -0.999970 -0.000072
vn 0.428869 -0.868830 -0.247399
vn 0.829141 0.288231 -0.479008
vn 0.863503 0.075425 -0.498672
vn 0.000563 1.000000 -0.000326
vn 0.428536 0.868860 -0.247870
vn -0.007784 0.999970 0.000071
vn -0.507589 0.861587 0.004619
vn -0.960052 0.279643 0.010015
vn -0.997030 0.076267 0.010708
vn -0.960038 -0.279689 0.010010
vn -0.507520 -0.861628 0.004612
vn -0.007785 -0.999970 0.000071
vn -0.003948 0.999970 -0.006690
vn -0.257903 0.861617 -0.437152
vn -0.489031 0.279915 -0.826134
vn -0.508163 0.076424 -0.857864
vn -0.003822 0.999970 0.006761
vn -0.249648 0.861791 0.441578
vn -0.471339 0.279636 0.836447
vn -0.489261 0.076245 0.868798
vn 0.003954 0.999970 0.006703
vn 0.257820 0.861680 0.437078
vn 0.488960 0.279460 0.826329
vn 0.508035 0.076177 0.857961
vn 0.488967 -0.279404 0.826344
vn 0.257778 -0.861725 0.437013
vn 0.003954 -0.999970 0.006703
vn 0.007765 0.999970 -0.000073
vn 0.507385 0.861707 -0.004694
vn 0.960010 0.279779 -0.010265
vn 0.997018 0.076393 -0.010951
vn 0.003828 0.999970 -0.006774
vn 0.249735 0.861609 -0.441886
vn 0.471234 0.279775 -0.836460
vn 0.489109 0.076474 -0.868864
vn 0.471225 -0.279878 -0.836430
vn 0.249744 -0.861604 -0.441890
vn 0.003829 -0.999970 -0.006775
vn -0.999933 0.000000 -0.011549
vn -1.000000 0.000000 0.000000
vn -0.965909 0.000000 -0.258882
vn -0.509754 -0.000021 -0.860320
vn -0.707045 0.000000 -0.707169
vn -0.490377 -0.000021 -0.871511
vn -0.500004 -0.000022 -0.866023
vn 0.000000 0.000000 -1.000000
vn 0.490443 0.000001 -0.871473
vn 0.509825 0.000002 -0.860278
vn 0.500004 0.000002 -0.866023
vn 0.707060 0.000000 -0.707154
vn 0.999938 0.000000 -0.011102
vn 0.965906 0.000000 -0.258894
vn 0.999937 0.000000 0.011270
vn 1.000000 0.000000 -0.000000
vn 0.865975 0.000000 0.500087
vn 0.509608 0.000002 0.860407
vn 0.490235 0.000002 0.871591
vn 0.500005 0.000002 0.866022
vn -0.000012 0.000000 1.000000
vn -0.490592 -0.000001 0.871389
vn -0.509981 -0.000001 0.860186
vn -0.500005 -0.000001 0.866022
vn -0.707015 0.000000 0.707199
vn -0.999941 0.000000 0.010845
vn -0.965913 0.000000 0.258866
s 1
g pDisc1
usemtl initialShadingGroup
f 133/152/1 134/153/2 13/3/3 12/4/4
s 2
f 134/153/5 135/154/6 14/6/7 13/3/8
s 3
f 129/147/9 130/148/10 19/9/11 18/10/12
s 4
f 130/148/13 131/149/14 20/12/15 19/9/16
s 1
f 140/160/17 141/161/18 25/15/19 24/16/20
s 2
f 141/161/21 142/162/22 26/18/23 25/15/24
s 3
f 136/155/25 137/156/26 31/21/27 30/22/28
s 4
f 137/156/29 138/157/30 32/24/31 31/21/32
f 41/25/33 40/26/34 165/188/35 166/189/36
s 3
f 40/26/37 39/29/38 164/187/39 165/188/40
s 2
f 47/31/41 46/32/42 162/185/43 163/186/44
s 1
f 46/32/45 45/35/46 161/184/47 162/185/48
s 4
f 53/37/49 52/38/50 158/180/51 159/181/52
s 3
f 52/38/53 51/41/54 157/179/55 158/180/56
s 4
f 65/43/57 64/44/58 151/172/59 152/173/60
s 3
f 64/44/61 63/47/62 150/171/63 151/172/64
s 2
f 71/49/65 70/50/66 148/169/67 149/170/68
s 1
f 70/50/69 69/53/70 147/168/71 148/169/72
s 4
f 77/55/73 76/56/74 144/164/75 145/165/76
s 3
f 76/56/77 75/59/78 143/163/79 144/164/80
s 4
f 131/149/14 132/150/81 112/146/82 20/12/15
f 166/189/36 167/190/83 127/131/84 41/25/33
f 159/181/52 160/182/85 124/134/86 53/37/49
f 152/173/60 153/174/87 121/137/88 65/43/57
f 145/165/76 146/166/89 118/140/90 77/55/73
f 138/157/30 139/158/91 115/143/92 32/24/31
f 127/131/84 128/129/93 86/74/94 41/25/33
f 128/129/95 111/61/96 15/11/97 86/74/94
f 112/146/82 113/145/98 89/76/99 20/12/15
f 113/145/100 114/144/101 27/23/102 89/76/99
f 124/134/86 125/133/103 93/78/104 53/37/49
f 125/133/103 126/132/105 42/28/106 93/78/104
f 121/137/88 122/136/107 100/80/108 65/43/57
f 122/136/107 123/135/109 54/40/110 100/80/108
f 118/140/90 119/139/111 103/82/112 77/55/73
f 119/139/113 120/138/114 66/46/115 103/82/112
f 115/143/92 116/142/116 110/84/117 32/24/31
f 116/142/116 117/141/118 78/58/119 110/84/117
s 2
f 83/85/120 35/86/121 170/194/122 1/89/123
s 3
f 18/10/12 4/91/124 2/92/125 129/147/9
s 2
f 163/186/44 1/89/123 5/88/126 47/31/41
s 3
f 98/100/127 2/92/125 150/171/63 63/47/62
s 2
f 107/101/128 26/18/23 142/162/22 1/89/123
s 3
f 75/59/78 8/99/129 2/92/125 143/163/79
s 1
f 12/4/4 13/3/3 88/103/130 87/104/131
s 2
f 13/3/8 14/6/7 3/90/132 88/103/133
s 1
f 24/16/20 25/15/19 106/105/134 105/106/135
s 2
f 25/15/24 26/18/23 107/101/128 106/105/136
s 4
f 27/23/102 28/20/137 90/107/138 89/76/99
s 3
f 28/20/139 29/19/140 4/91/124 90/107/141
f 30/22/28 31/21/27 109/108/142 108/102/143
s 4
f 31/21/32 32/24/31 110/84/117 109/108/144
s 1
f 33/109/145 34/110/146 82/111/147 81/112/148
s 2
f 34/110/149 35/86/121 83/85/120 82/111/150
f 35/86/121 34/110/149 169/193/151 170/194/122
s 1
f 34/110/146 33/109/145 168/192/152 169/193/153
s 3
f 39/29/38 40/26/37 85/115/154 84/94/155
s 4
f 40/26/34 41/25/33 86/74/94 85/115/156
f 42/28/106 43/27/157 94/116/158 93/78/104
s 3
f 43/27/159 44/30/160 6/93/161 94/116/162
s 1
f 45/35/46 46/32/45 92/117/163 91/118/164
s 2
f 46/32/42 47/31/41 5/88/126 92/117/165
s 1
f 57/119/166 58/120/167 96/121/168 95/122/169
s 2
f 58/120/170 59/96/171 97/95/172 96/121/173
f 59/96/171 58/120/170 155/177/174 156/178/175
s 1
f 58/120/167 57/119/166 154/176/176 155/177/177
s 3
f 63/47/62 64/44/61 99/125/178 98/100/127
s 4
f 64/44/58 65/43/57 100/80/108 99/125/179
f 66/46/115 67/45/180 104/126/181 103/82/112
s 3
f 67/45/182 68/48/183 8/99/129 104/126/184
s 1
f 69/53/70 70/50/69 102/127/185 101/128/186
s 2
f 70/50/66 71/49/65 7/98/187 102/127/188
f 9/5/189 10/2/190 82/111/150 83/85/120
s 1
f 10/2/191 11/1/192 81/112/148 82/111/147
s 4
f 15/11/97 16/8/193 85/115/156 86/74/94
s 3
f 16/8/194 17/7/195 84/94/155 85/115/154
s 2
f 21/17/196 22/14/197 88/103/133 3/90/132
s 1
f 22/14/198 23/13/199 87/104/131 88/103/130
s 3
f 18/10/12 19/9/11 90/107/141 4/91/124
s 4
f 19/9/16 20/12/15 89/76/99 90/107/138
s 2
f 38/87/200 37/113/201 92/117/165 5/88/126
s 1
f 37/113/202 36/114/203 91/118/164 92/117/163
s 3
f 51/41/54 52/38/53 94/116/162 6/93/161
s 4
f 52/38/50 53/37/49 93/78/104 94/116/158
s 2
f 48/34/204 49/33/205 96/121/173 97/95/172
s 1
f 49/33/206 50/36/207 95/122/169 96/121/168
s 4
f 54/40/110 55/39/208 99/125/179 100/80/108
s 3
f 55/39/209 56/42/210 98/100/127 99/125/178
s 2
f 62/97/211 61/123/212 102/127/188 7/98/187
s 1
f 61/123/213 60/124/214 101/128/186 102/127/185
s 3
f 75/59/78 76/56/77 104/126/184 8/99/129
s 4
f 76/56/74 77/55/73 103/82/112 104/126/181
s 2
f 72/52/215 73/51/216 106/105/136 107/101/128
s 1
f 73/51/217 74/54/218 105/106/135 106/105/134
s 4
f 78/58/119 79/57/219 109/108/144 110/84/117
s 3
f 79/57/220 80/60/221 108/102/143 109/108/142
s 1
f 112/62/222 132/151/223 133/152/1 12/4/4
f 12/4/4 87/104/131 113/75/224 112/62/222
f 87/104/131 23/13/199 114/71/225 113/75/226
f 115/72/227 139/159/228 140/160/17 24/16/20
f 24/16/20 105/106/135 116/83/229 115/72/227
f 105/106/135 74/54/218 117/69/230 116/83/229
f 118/70/231 146/167/232 147/168/71 69/53/70
f 69/53/70 101/128/186 119/81/233 118/70/231
f 101/128/186 60/124/214 120/67/234 119/81/235
f 121/68/236 153/175/237 154/176/176 57/119/166
f 57/119/166 95/122/169 122/79/238 121/68/236
f 95/122/169 50/36/207 123/65/239 122/79/238
f 124/66/240 160/183/241 161/184/47 45/35/46
f 45/35/46 91/118/164 125/77/242 124/66/240
f 91/118/164 36/114/203 126/63/243 125/77/242
f 127/64/244 167/191/245 168/192/152 33/109/145
f 33/109/145 81/112/148 128/73/246 127/64/244
f 81/112/148 11/1/192 111/130/247 128/73/248
s 2
f 97/95/172 59/96/171 156/178/175 1/89/123
s 3
f 51/41/54 6/93/161 2/92/125 157/179/55
s 2
f 149/170/68 1/89/123 7/98/187 71/49/65
s 3
f 108/102/143 2/92/125 136/155/25 30/22/28
s 2
f 135/154/6 1/89/123 3/90/132 14/6/7
s 3
f 84/94/155 2/92/125 164/187/39 39/29/38
f 129/147/9 2/92/125 84/94/155 17/7/195
f 17/7/195 16/8/194 130/148/10 129/147/9
s 4
f 16/8/193 15/11/97 131/149/14 130/148/13
f 15/11/97 111/61/96 132/150/81 131/149/14
s 1
f 133/152/1 132/151/223 111/130/247 11/1/192
f 11/1/192 10/2/191 134/153/2 133/152/1
s 2
f 10/2/190 9/5/189 135/154/6 134/153/5
f 83/85/120 1/89/123 135/154/6 9/5/189
s 3
f 136/155/25 2/92/125 4/91/124 29/19/140
f 29/19/140 28/20/139 137/156/26 136/155/25
s 4
f 28/20/137 27/23/102 138/157/30 137/156/29
f 27/23/102 114/144/101 139/158/91 138/157/30
s 1
f 140/160/17 139/159/228 114/71/225 23/13/199
f 23/13/199 22/14/198 141/161/18 140/160/17
s 2
f 22/14/197 21/17/196 142/162/22 141/161/21
f 1/89/123 142/162/22 21/17/196 3/90/132
s 3
f 143/163/79 2/92/125 108/102/143 80/60/221
f 144/164/80 143/163/79 80/60/221 79/57/220
s 4
f 145/165/76 144/164/75 79/57/219 78/58/119
f 78/58/119 117/141/118 146/166/89 145/165/76
s 1
f 147/168/71 146/167/232 117/69/230 74/54/218
f 148/169/72 147/168/71 74/54/218 73/51/217
s 2
f 149/170/68 148/169/67 73/51/216 72/52/215
f 107/101/128 1/89/123 149/170/68 72/52/215
s 3
f 150/171/63 2/92/125 8/99/129 68/48/183
f 151/172/64 150/171/63 68/48/183 67/45/182
s 4
f 152/173/60 151/172/59 67/45/180 66/46/115
f 66/46/115 120/138/114 153/174/87 152/173/60
s 1
f 154/176/176 153/175/237 120/67/234 60/124/214
f 155/177/177 154/176/176 60/124/214 61/123/213
s 2
f 156/178/175 155/177/174 61/123/212 62/97/211
f 1/89/123 156/178/175 62/97/211 7/98/187
s 3
f 157/179/55 2/92/125 98/100/127 56/42/210
f 158/180/56 157/179/55 56/42/210 55/39/209
s 4
f 159/181/52 158/180/51 55/39/208 54/40/110
f 54/40/110 123/135/109 160/182/85 159/181/52
s 1
f 161/184/47 160/183/241 123/65/239 50/36/207
f 162/185/48 161/184/47 50/36/207 49/33/206
s 2
f 163/186/44 162/185/43 49/33/205 48/34/204
f 97/95/172 1/89/123 163/186/44 48/34/204
s 3
f 164/187/39 2/92/125 6/93/161 44/30/160
f 165/188/40 164/187/39 44/30/160 43/27/159
s 4
f 166/189/36 165/188/35 43/27/157 42/28/106
f 42/28/106 126/132/105 167/190/83 166/189/36
s 1
f 168/192/152 167/191/245 126/63/243 36/114/203
f 169/193/153 168/192/152 36/114/203 37/113/202
s 2
f 170/194/122 169/193/151 37/113/201 38/87/200
f 1/89/123 170/194/122 38/87/200 5/88/126
